<?xml version="1.0" encoding="UTF-8"?>
<svg id="Layer_1" data-name="Layer 1" xmlns="http://www.w3.org/2000/svg" viewBox="0 0 349.93 180.28">
  <defs>
    <style>
      .cls-1 {
        fill: none;
      }

      .cls-2 {
        fill: #c91f3d;
      }
    </style>
  </defs>
  <g>
    <path class="cls-2" d="M71.55,128.82h-.78c-.39-.06-1.86-3.12-4.39-9.18l-23.14-53.12c-9.83,6.38-14.75,19.96-14.75,40.72v1.17c0,29.62,10.51,53.45,31.54,71.48v.39c-6.32-1.63-15.3-4.71-24.8-10.84-11.27-7.26-18.5-15.71-22.65-21.42-2.56-4.13-6.54-11.82-7.53-22.21-.63-6.67.18-12.29,1.08-16.23.38-2.77,1.14-7.93,2.34-14.36,5.42-28.93,13.78-50.83,11.23-51.86-.13-.05-.25-.03-.39,0-4.65,1-7.68,1.65-10.3,4.08L.56,59.67c-1.62-.85.68-8.2,2.08-12.6,2.11-6.64,3.46-10.87,6.23-16.11C19.05,11.68,38.26-1.83,40.79.2v6.45s-.15.73,0,5.57c.88,28.17,16.65,51.01,30.76,66.7"/>
    <path class="cls-2" d="M71.55,78.91c14.12-15.69,29.88-38.53,30.76-66.7.15-4.84,0-5.57,0-5.57V.2c2.53-2.03,21.74,11.48,31.93,30.76,2.77,5.24,4.12,9.48,6.23,16.11,1.4,4.4,3.7,11.75,2.08,12.6l-8.45-12.23c-2.63-2.43-5.65-3.08-10.3-4.08-.14-.03-.26-.05-.39,0-2.55,1.02,5.81,22.93,11.23,51.86,1.2,6.43,1.96,11.59,2.34,14.36.91,3.94,1.72,9.56,1.08,16.23-.99,10.39-4.97,18.08-7.53,22.21-4.15,5.71-11.39,14.16-22.65,21.42-9.51,6.13-18.48,9.21-24.8,10.84v-.39c21.03-18.03,31.54-41.86,31.54-71.48v-1.17c0-20.77-4.92-34.34-14.75-40.72l-23.14,53.12c-2.54,6.05-4,9.12-4.39,9.18h-.78"/>
  </g>
  <rect class="cls-1" x="348.02" y="23.05" width="1.58" height="1.58" transform="translate(85.31 253.63) rotate(-45)"/>
</svg>